<svg width="24" height="24" viewBox="0 0 24 24" fill="none" xmlns="http://www.w3.org/2000/svg">
<g id="mage:money-exchange" clip-path="url(#clip0_138_345)">
<g id="Group">
<path id="Vector" d="M15 14.499C14.998 15.027 14.983 15.314 14.85 15.529C14.524 16.061 13.874 15.998 13.324 15.998H10.8C9.69302 15.998 9.13902 15.998 9.02002 15.671C8.90202 15.345 9.32302 14.977 10.164 14.239L11.854 12.759C12.256 12.406 12.458 12.229 12.458 12C12.458 11.77 12.256 11.594 11.854 11.241L10.164 9.761C9.32402 9.024 8.90202 8.655 9.02102 8.329C9.13902 8.002 9.69302 8.002 10.801 8.002H13.325C13.875 8.002 14.525 7.939 14.851 8.47C14.984 8.686 14.999 8.973 15.001 9.501" stroke="white" stroke-width="2.5" stroke-linecap="round" stroke-linejoin="round"/>
<path id="Vector_2" d="M12 22C17.5228 22 22 17.5228 22 12C22 6.47715 17.5228 2 12 2C6.47715 2 2 6.47715 2 12C2 17.5228 6.47715 22 12 22Z" stroke="white" stroke-width="2.5" stroke-linecap="round" stroke-linejoin="round"/>
</g>
</g>
<defs>
<clipPath id="clip0_138_345">
<rect width="24" height="24" fill="white"/>
</clipPath>
</defs>
</svg>
