<svg width="24" height="24" viewBox="0 0 24 24" fill="none" xmlns="http://www.w3.org/2000/svg">
<g id="pajamas:status-neutral" clip-path="url(#clip0_5_291)">
<path id="Vector" fill-rule="evenodd" clip-rule="evenodd" d="M12 24C15.1826 24 18.2348 22.7357 20.4853 20.4853C22.7357 18.2348 24 15.1826 24 12C24 8.8174 22.7357 5.76515 20.4853 3.51472C18.2348 1.26428 15.1826 0 12 0C8.8174 0 5.76515 1.26428 3.51472 3.51472C1.26428 5.76515 0 8.8174 0 12C0 15.1826 1.26428 18.2348 3.51472 20.4853C5.76515 22.7357 8.8174 24 12 24ZM6 9.5C6 9.10218 6.15804 8.72064 6.43934 8.43934C6.72064 8.15804 7.10218 8 7.5 8H16.5C16.8978 8 17.2794 8.15804 17.5607 8.43934C17.842 8.72064 18 9.10218 18 9.5C18 9.89782 17.842 10.2794 17.5607 10.5607C17.2794 10.842 16.8978 11 16.5 11H7.5C7.10218 11 6.72064 10.842 6.43934 10.5607C6.15804 10.2794 6 9.89782 6 9.5ZM6 14.5C6 14.1022 6.15804 13.7206 6.43934 13.4393C6.72064 13.158 7.10218 13 7.5 13H14.5C14.8978 13 15.2794 13.158 15.5607 13.4393C15.842 13.7206 16 14.1022 16 14.5C16 14.8978 15.842 15.2794 15.5607 15.5607C15.2794 15.842 14.8978 16 14.5 16H7.5C7.10218 16 6.72064 15.842 6.43934 15.5607C6.15804 15.2794 6 14.8978 6 14.5Z" fill="white"/>
</g>
<defs>
<clipPath id="clip0_5_291">
<rect width="24" height="24" fill="white"/>
</clipPath>
</defs>
</svg>
