<svg width="22" height="22" viewBox="0 0 22 22" fill="none" xmlns="http://www.w3.org/2000/svg">
<g id="cuida:filter-outline" clip-path="url(#clip0_109_5)">
<g id="Group">
<path id="Vector" fill-rule="evenodd" clip-rule="evenodd" d="M0.316162 5.73006C0.316162 5.41098 0.442915 5.10497 0.668537 4.87935C0.894158 4.65373 1.20017 4.52698 1.51924 4.52698H20.7686C21.0876 4.52698 21.3937 4.65373 21.6193 4.87935C21.8449 5.10497 21.9716 5.41098 21.9716 5.73006C21.9716 6.04914 21.8449 6.35515 21.6193 6.58077C21.3937 6.80639 21.0876 6.93314 20.7686 6.93314H1.51924C1.20017 6.93314 0.894158 6.80639 0.668537 6.58077C0.442915 6.35515 0.316162 6.04914 0.316162 5.73006ZM2.72233 11.1439C2.72233 10.8249 2.84908 10.5188 3.0747 10.2932C3.30032 10.0676 3.60633 9.94085 3.92541 9.94085H18.3624C18.6815 9.94085 18.9875 10.0676 19.2131 10.2932C19.4387 10.5188 19.5655 10.8249 19.5655 11.1439C19.5655 11.463 19.4387 11.769 19.2131 11.9946C18.9875 12.2203 18.6815 12.347 18.3624 12.347H3.92541C3.60633 12.347 3.30032 12.2203 3.0747 11.9946C2.84908 11.769 2.72233 11.463 2.72233 11.1439ZM6.33157 16.5578C6.33157 16.2387 6.45833 15.9327 6.68395 15.7071C6.90957 15.4815 7.21558 15.3547 7.53466 15.3547H14.7532C15.0722 15.3547 15.3782 15.4815 15.6039 15.7071C15.8295 15.9327 15.9562 16.2387 15.9562 16.5578C15.9562 16.8769 15.8295 17.1829 15.6039 17.4085C15.3782 17.6341 15.0722 17.7609 14.7532 17.7609H7.53466C7.21558 17.7609 6.90957 17.6341 6.68395 17.4085C6.45833 17.1829 6.33157 16.8769 6.33157 16.5578Z" fill="#112422"/>
</g>
</g>
<defs>
<clipPath id="clip0_109_5">
<rect width="21.6555" height="21.6555" fill="white" transform="translate(0.316162 0.316162)"/>
</clipPath>
</defs>
</svg>
