<svg width="155" height="76" viewBox="0 0 155 76" fill="none" xmlns="http://www.w3.org/2000/svg">
<g id="LogoPaxVerde.078f4e27 1" clip-path="url(#clip0_1_28)">
<path id="Vector" fill-rule="evenodd" clip-rule="evenodd" d="M0 75.8911V69.7768H1.99451C2.48805 69.7568 2.98233 69.788 3.4694 69.8702C3.82436 69.9626 4.13718 70.1734 4.35619 70.4676C4.60488 70.8138 4.72983 71.2335 4.71091 71.6593C4.72034 71.9823 4.65092 72.3027 4.50866 72.5928C4.38425 72.8323 4.20517 73.0391 3.98592 73.1964C3.79158 73.333 3.57297 73.4312 3.34182 73.4858C2.91684 73.5525 2.48683 73.5816 2.05675 73.573H1.24463V75.8786L0 75.8911ZM1.24463 70.8099V72.5524H1.92295C2.25163 72.5699 2.58107 72.5374 2.89998 72.4559C3.05929 72.3982 3.19625 72.2916 3.29127 72.1513C3.38628 72.011 3.43448 71.8442 3.42895 71.6749C3.43576 71.4731 3.3657 71.2762 3.23292 71.1241C3.10068 70.9801 2.92456 70.8839 2.73195 70.8503C2.43661 70.8163 2.13926 70.8028 1.84205 70.8099H1.24463ZM6.60586 75.8911V69.7768H7.77892V75.8911H6.60586ZM10.7536 72.8262L9.68631 72.6364C9.77572 72.2533 9.99576 71.9133 10.3086 71.6749C10.7043 71.4424 11.1606 71.334 11.6186 71.3637C12.0195 71.3409 12.4206 71.4046 12.7948 71.5504C13.0217 71.6466 13.2123 71.8122 13.3393 72.0234C13.4705 72.3554 13.5248 72.7129 13.498 73.0689L13.4793 74.4348C13.472 74.7232 13.4908 75.0117 13.5353 75.2968C13.5804 75.503 13.6515 75.7027 13.7469 75.8911H12.577C12.5458 75.8133 12.5085 75.7013 12.4649 75.5488C12.4536 75.5022 12.439 75.4565 12.4214 75.4119C12.2369 75.599 12.0182 75.7489 11.7773 75.8537C11.5459 75.9512 11.2972 76.0009 11.0461 76C10.6487 76.0231 10.2579 75.8903 9.95701 75.6297C9.82839 75.5113 9.72659 75.3667 9.65843 75.2057C9.59028 75.0447 9.55734 74.871 9.56184 74.6962C9.55746 74.4606 9.62005 74.2287 9.74231 74.0272C9.86646 73.8251 10.0502 73.6664 10.2682 73.573C10.5677 73.446 10.881 73.3541 11.2016 73.2991C11.5923 73.239 11.9766 73.1432 12.3498 73.0129V72.8946C12.3584 72.8059 12.3479 72.7164 12.3189 72.6321C12.2899 72.5478 12.2431 72.4708 12.1818 72.4061C11.9948 72.2935 11.7768 72.2433 11.5595 72.263C11.3867 72.2528 11.215 72.2963 11.0678 72.3874C10.9297 72.5009 10.8297 72.654 10.7816 72.8262H10.7536ZM12.3374 73.7596C12.1849 73.8094 11.9453 73.8685 11.6186 73.9401C11.3949 73.9747 11.1778 74.0429 10.9745 74.1424C10.905 74.1868 10.8477 74.2479 10.808 74.3202C10.7683 74.3926 10.7474 74.4737 10.7474 74.5562C10.7463 74.6362 10.7621 74.7155 10.7937 74.7889C10.8254 74.8623 10.8721 74.9283 10.9309 74.9825C10.9935 75.0419 11.0673 75.0881 11.148 75.1186C11.2286 75.1491 11.3146 75.1631 11.4008 75.1598C11.6248 75.1596 11.8429 75.0877 12.0231 74.9545C12.1552 74.8577 12.2532 74.7215 12.3031 74.5655C12.3425 74.3774 12.3582 74.185 12.3498 73.993L12.3374 73.7596ZM19.6029 75.8911H18.4205V73.6321C18.4375 73.319 18.4124 73.005 18.3458 72.6986C18.2997 72.566 18.2125 72.4515 18.0969 72.3719C17.9739 72.2922 17.8295 72.2521 17.683 72.2568C17.4858 72.253 17.2922 72.3106 17.1292 72.4217C16.9698 72.5261 16.8512 72.6821 16.7931 72.8635C16.7148 73.1967 16.6834 73.5391 16.6998 73.881V75.8848H15.5236V71.4602H16.6127V72.1105C16.782 71.8769 17.0048 71.6872 17.2625 71.5572C17.5202 71.4273 17.8052 71.361 18.0938 71.3637C18.3392 71.3629 18.5824 71.4105 18.8094 71.5038C19.0011 71.5776 19.1705 71.6998 19.301 71.8585C19.4135 72.0043 19.4921 72.1733 19.5313 72.3532C19.5847 72.6121 19.6077 72.8763 19.5998 73.1404L19.6029 75.8911ZM21.4014 73.6196C21.4028 73.225 21.5022 72.8369 21.6907 72.4901C21.8727 72.1346 22.1595 71.8436 22.5122 71.6562C22.8761 71.4596 23.2841 71.3589 23.6977 71.3637C24.0034 71.3524 24.3081 71.4043 24.5928 71.5161C24.8775 71.628 25.1361 71.7975 25.3522 72.014C25.5684 72.2304 25.7375 72.4892 25.849 72.774C25.9606 73.0589 26.012 73.3637 26.0002 73.6694C26.0096 73.9773 25.9569 74.284 25.8452 74.5711C25.7334 74.8581 25.565 75.1198 25.3499 75.3403C25.1364 75.5576 24.8802 75.7284 24.5974 75.8419C24.3147 75.9554 24.0116 76.0092 23.707 76C23.301 76.0015 22.9003 75.9077 22.5371 75.7262C22.1769 75.5522 21.8807 75.2691 21.6907 74.9172C21.4869 74.5158 21.3874 74.0696 21.4014 73.6196ZM22.6118 73.685C22.5867 74.048 22.6976 74.4073 22.9229 74.6931C23.0185 74.8056 23.1379 74.8954 23.2724 74.9562C23.4069 75.017 23.5532 75.0472 23.7008 75.0447C23.8475 75.0474 23.993 75.0172 24.1265 74.9564C24.26 74.8955 24.3782 74.8056 24.4725 74.6931C24.6986 74.4042 24.8095 74.0416 24.7836 73.6756C24.8083 73.3146 24.6973 72.9573 24.4725 72.6737C24.3782 72.5612 24.26 72.4713 24.1265 72.4104C23.993 72.3496 23.8475 72.3194 23.7008 72.3221C23.5532 72.3196 23.4069 72.3498 23.2724 72.4106C23.1379 72.4714 23.0185 72.5613 22.9229 72.6737C22.6972 72.9604 22.5862 73.3209 22.6118 73.685ZM34.2895 75.8911H33.2004V75.2407C33.0328 75.4792 32.811 75.6743 32.5532 75.8102C32.3212 75.9333 32.0628 75.9984 31.8002 76C31.548 76.0001 31.2989 75.9443 31.0708 75.8367C30.8427 75.7291 30.6412 75.5723 30.4809 75.3777C30.0891 74.8941 29.8926 74.2813 29.9302 73.6601C29.8862 73.0416 30.0774 72.4293 30.4653 71.9456C30.6347 71.7552 30.8435 71.6039 31.0773 71.5024C31.311 71.4008 31.5641 71.3514 31.8189 71.3575C32.0672 71.3591 32.3121 71.4158 32.5359 71.5234C32.7597 71.631 32.9569 71.7869 33.1133 71.9798V69.7737H34.2895V75.8911ZM31.1437 73.5885C31.1181 73.943 31.1857 74.2981 31.3397 74.6184C31.4179 74.7605 31.5335 74.8785 31.6738 74.9596C31.8142 75.0408 31.9741 75.082 32.1363 75.0789C32.2703 75.0791 32.4026 75.0479 32.5225 74.988C32.6424 74.928 32.7467 74.8409 32.827 74.7336C33.0389 74.4326 33.1401 74.0676 33.1133 73.7005C33.1481 73.3126 33.0504 72.9244 32.8364 72.599C32.7512 72.4943 32.6437 72.4099 32.5218 72.3519C32.3999 72.294 32.2666 72.2639 32.1316 72.2639C31.9966 72.2639 31.8633 72.294 31.7414 72.3519C31.6195 72.4099 31.512 72.4943 31.4268 72.599C31.2187 72.8863 31.1184 73.2378 31.1437 73.5916V73.5885ZM38.9226 74.4909L40.1019 74.6869C39.9758 75.0825 39.7246 75.4265 39.3862 75.667C39.0217 75.8993 38.5953 76.0154 38.1634 76C37.8365 76.0253 37.5084 75.9696 37.2082 75.8377C36.908 75.7058 36.6451 75.5018 36.4427 75.2439C36.1326 74.7963 35.9765 74.2601 35.9977 73.7161C35.962 73.087 36.1704 72.4683 36.5796 71.9892C36.7643 71.7864 36.9905 71.6258 37.2429 71.5184C37.4953 71.411 37.7678 71.3593 38.042 71.3668C38.3333 71.3559 38.6234 71.4087 38.8922 71.5215C39.1609 71.6344 39.4017 71.8046 39.5978 72.0203C39.9816 72.4559 40.1641 73.1238 40.1454 74.0241H37.1957C37.1862 74.3211 37.2884 74.6108 37.4819 74.8362C37.5674 74.9298 37.6718 75.0039 37.7883 75.0539C37.9047 75.1038 38.0305 75.1282 38.1571 75.1256C38.3253 75.1315 38.4903 75.0787 38.6239 74.9763C38.7653 74.8482 38.8641 74.6799 38.907 74.494L38.9226 74.4909ZM38.9942 73.3022C39.0057 73.02 38.9113 72.7437 38.7297 72.5275C38.6489 72.4433 38.5516 72.3766 38.444 72.3315C38.3364 72.2864 38.2206 72.2639 38.104 72.2654C37.9873 72.2669 37.8722 72.2922 37.7657 72.34C37.6592 72.3878 37.5637 72.4569 37.485 72.543C37.308 72.755 37.219 73.0266 37.2361 73.3022H38.9942ZM49.6326 75.8911H48.2884L47.7563 74.5002H45.2733L44.7599 75.8911H43.4406L45.8334 69.7768H47.1496L49.6326 75.8911ZM47.3518 73.464L46.4961 71.205L45.6653 73.464H47.3518ZM50.7434 74.6433L51.932 74.466C51.969 74.6696 52.0798 74.8524 52.2432 74.9794C52.4322 75.1084 52.6589 75.1708 52.8873 75.1567C53.1294 75.1731 53.3706 75.1144 53.5781 74.9887C53.6267 74.953 53.666 74.9061 53.6926 74.8519C53.7191 74.7977 53.7321 74.7379 53.7305 74.6776C53.7327 74.5957 53.7025 74.5164 53.6465 74.4566C53.5291 74.3766 53.395 74.3245 53.2545 74.3042C52.2992 74.0926 51.6987 73.9028 51.4435 73.7285C51.2759 73.6231 51.1387 73.4759 51.0454 73.3013C50.9521 73.1266 50.9059 72.9307 50.9114 72.7328C50.9104 72.5471 50.951 72.3636 51.0301 72.1956C51.1093 72.0276 51.225 71.8795 51.3688 71.762C51.7805 71.4674 52.283 71.3274 52.7877 71.3668C53.2624 71.3383 53.7353 71.4462 54.1506 71.678C54.459 71.8853 54.6804 72.1987 54.7729 72.5586L53.6652 72.7639C53.6262 72.6019 53.5287 72.4601 53.3914 72.3657C53.2191 72.2621 53.0195 72.2133 52.8188 72.2256C52.5872 72.2084 52.3551 72.2535 52.1467 72.3563C52.1056 72.3805 52.0715 72.415 52.048 72.4566C52.0245 72.4981 52.0124 72.5451 52.0129 72.5928C52.013 72.6356 52.0239 72.6778 52.0446 72.7153C52.0653 72.7528 52.095 72.7845 52.1312 72.8075C52.4757 72.9564 52.8373 73.062 53.2078 73.1218C53.6809 73.1994 54.1319 73.3777 54.5302 73.6445C54.6542 73.7519 54.7521 73.8863 54.8162 74.0373C54.8804 74.1883 54.9092 74.3519 54.9005 74.5157C54.8999 74.7176 54.8534 74.9166 54.7644 75.0978C54.6755 75.2789 54.5464 75.4374 54.3871 75.5612C53.9495 75.8841 53.4109 76.0397 52.8686 76C52.3617 76.0266 51.8585 75.8997 51.4249 75.6359C51.0781 75.4023 50.8299 75.0488 50.7279 74.6433H50.7434ZM56.4065 74.6433L57.5951 74.466C57.6329 74.6693 57.7435 74.8518 57.9062 74.9794C58.0966 75.108 58.3241 75.1703 58.5535 75.1567C58.7955 75.1731 59.0367 75.1144 59.2442 74.9887C59.2929 74.953 59.3322 74.9061 59.3587 74.8519C59.3853 74.7977 59.3983 74.7379 59.3967 74.6776C59.3988 74.5957 59.3686 74.5164 59.3127 74.4566C59.1956 74.376 59.0614 74.3238 58.9206 74.3042C57.9654 74.0926 57.3648 73.9028 57.1066 73.7285C56.9398 73.6225 56.8034 73.475 56.7106 73.3005C56.6179 73.126 56.5721 72.9304 56.5776 72.7328C56.5766 72.5471 56.6172 72.3636 56.6963 72.1956C56.7754 72.0276 56.8912 71.8795 57.035 71.762C57.4475 71.4666 57.9512 71.3267 58.457 71.3668C58.9306 71.3389 59.4024 71.4468 59.8168 71.678C60.1251 71.8853 60.3466 72.1987 60.4391 72.5586L59.3313 72.7639C59.2923 72.6019 59.1948 72.4601 59.0575 72.3657C58.8853 72.2621 58.6856 72.2133 58.485 72.2256C58.2533 72.2084 58.0212 72.2535 57.8129 72.3563C57.7717 72.3805 57.7377 72.415 57.7142 72.4566C57.6907 72.4981 57.6786 72.5451 57.6791 72.5928C57.6792 72.6356 57.6901 72.6778 57.7108 72.7153C57.7314 72.7528 57.7612 72.7845 57.7973 72.8075C58.141 72.9557 58.5015 73.0612 58.8708 73.1218C59.3432 73.1986 59.7933 73.377 60.1901 73.6445C60.3153 73.7512 60.4141 73.8853 60.4789 74.0364C60.5436 74.1875 60.5726 74.3516 60.5635 74.5157C60.563 74.7176 60.5164 74.9166 60.4275 75.0978C60.3385 75.2789 60.2095 75.4374 60.0501 75.5612C59.6126 75.8841 59.074 76.0397 58.5317 76C58.0248 76.0266 57.5216 75.8997 57.0879 75.6359C56.7412 75.4023 56.4929 75.0488 56.3909 74.6433H56.4065ZM62.4927 70.8628V69.7768H63.6689V70.8628H62.4927ZM62.4927 75.8911V71.4602H63.6689V75.8911H62.4927ZM65.3398 74.6464L66.5284 74.4691C66.5662 74.6724 66.6768 74.8549 66.8396 74.9825C67.0297 75.1115 67.2574 75.1739 67.4868 75.1598C67.7178 75.1695 67.9464 75.1099 68.1433 74.9887C68.1927 74.9536 68.2328 74.9068 68.2599 74.8525C68.287 74.7983 68.3004 74.7382 68.2989 74.6776C68.301 74.5957 68.2708 74.5164 68.2149 74.4566C68.0975 74.3766 67.9634 74.3245 67.8228 74.3042C66.8676 74.0926 66.267 73.9028 66.0088 73.7285C65.842 73.6225 65.7055 73.475 65.6128 73.3005C65.5201 73.126 65.4743 72.9304 65.4798 72.7328C65.4788 72.5471 65.5193 72.3636 65.5985 72.1956C65.6776 72.0276 65.7934 71.8795 65.9372 71.762C66.3488 71.4671 66.8513 71.3271 67.3561 71.3668C67.8307 71.3393 68.3033 71.4472 68.7189 71.678C69.0265 71.8861 69.2477 72.1992 69.3413 72.5586L68.2335 72.7639C68.1935 72.6024 68.0962 72.4609 67.9597 72.3657C67.7875 72.2621 67.5878 72.2133 67.3872 72.2256C67.1555 72.2084 66.9234 72.2535 66.7151 72.3563C66.6739 72.3805 66.6399 72.415 66.6164 72.4566C66.5929 72.4981 66.5808 72.5451 66.5813 72.5928C66.5816 72.6352 66.5923 72.677 66.6123 72.7144C66.6324 72.7518 66.6612 72.7838 66.6964 72.8075C67.0503 72.9638 67.4225 73.0746 67.8041 73.1373C68.2765 73.2142 68.7266 73.3925 69.1234 73.6601C69.2486 73.7667 69.3474 73.9008 69.4122 74.052C69.4769 74.2031 69.5059 74.3672 69.4968 74.5313C69.4963 74.7331 69.4498 74.9322 69.3608 75.1133C69.2718 75.2945 69.1428 75.453 68.9834 75.5768C68.5459 75.8996 68.0073 76.0552 67.465 76.0155C66.9581 76.0421 66.4549 75.9153 66.0212 75.6515C65.6736 75.4187 65.4251 75.0649 65.3242 74.6589L65.3398 74.6464ZM73.4641 71.4633V72.3968H72.6551V74.189C72.6473 74.4019 72.6546 74.6151 72.6769 74.8269C72.693 74.8878 72.7305 74.9409 72.7826 74.9763C72.8415 75.0158 72.9109 75.0364 72.9818 75.0354C73.1454 75.0234 73.3061 74.9856 73.4579 74.9234L73.5574 75.832C73.2616 75.9538 72.9438 76.0132 72.624 76.0062C72.428 76.0096 72.2333 75.9736 72.0514 75.9004C71.9025 75.8468 71.7726 75.7504 71.678 75.6235C71.5875 75.486 71.53 75.3295 71.51 75.1661C71.4776 74.8904 71.4651 74.6128 71.4727 74.3353V72.3968H70.9313V71.4633H71.4727V70.5827L72.652 69.892V71.4633H73.4641ZM77.7487 74.494L78.9249 74.69C78.7988 75.0848 78.549 75.4284 78.2123 75.6701C77.8469 75.9028 77.4193 76.0189 76.9864 76.0031C76.6595 76.0282 76.3315 75.9723 76.0314 75.8404C75.7313 75.7085 75.4683 75.5047 75.2657 75.247C74.958 74.7985 74.803 74.2627 74.8238 73.7192C74.7872 73.0905 74.9945 72.4719 75.4026 71.9923C75.5877 71.7893 75.8145 71.6286 76.0674 71.5212C76.3204 71.4138 76.5935 71.3622 76.8681 71.37C77.1595 71.3583 77.4498 71.4108 77.7187 71.5237C77.9875 71.6367 78.2282 71.8072 78.4239 72.0234C78.8098 72.459 78.9902 73.128 78.9747 74.0272H76.0249C76.0161 74.3236 76.1169 74.6127 76.3081 74.8394C76.3941 74.933 76.4991 75.0072 76.6161 75.0571C76.733 75.107 76.8593 75.1314 76.9864 75.1287C77.1536 75.1342 77.3174 75.0814 77.45 74.9794C77.5926 74.8517 77.6925 74.6834 77.7363 74.4971L77.7487 74.494ZM77.8172 73.3054C77.8287 73.0232 77.7344 72.7468 77.5527 72.5306C77.4743 72.444 77.3781 72.3756 77.2706 72.3299C77.1632 72.2842 77.0471 72.2625 76.9304 72.2661C76.81 72.263 76.6904 72.2864 76.5801 72.3349C76.4699 72.3833 76.3717 72.4554 76.2925 72.5461C76.1166 72.7585 76.0287 73.0302 76.0467 73.3054H77.8172ZM75.471 70.8908L76.3516 69.6617H77.4375L78.3088 70.8908H77.3598L76.8775 70.2685L76.4232 70.8908H75.471ZM84.8898 75.8942H83.7011V73.6352C83.7182 73.3221 83.6931 73.0081 83.6265 72.7017C83.5814 72.5694 83.4953 72.455 83.3806 72.375C83.2575 72.2957 83.1132 72.2556 82.9668 72.2599C82.7696 72.2561 82.576 72.3138 82.4129 72.4248C82.2526 72.5288 82.1329 72.6848 82.0738 72.8666C81.997 73.2 81.9666 73.5424 81.9836 73.8841V75.888H80.8043V71.4602H81.8964V72.1105C82.0655 71.8773 82.2878 71.6878 82.5449 71.5579C82.802 71.428 83.0864 71.3615 83.3744 71.3637C83.6199 71.3621 83.8633 71.4097 84.0901 71.5038C84.2818 71.5776 84.4511 71.6998 84.5817 71.8585C84.6938 72.0049 84.7734 72.1736 84.8151 72.3532C84.8656 72.6124 84.8875 72.8764 84.8804 73.1404L84.8898 75.8942ZM90.8515 72.7826L89.6909 72.988C89.6671 72.7891 89.5721 72.6056 89.4233 72.4715C89.2704 72.351 89.0795 72.2892 88.885 72.2972C88.7519 72.2923 88.6193 72.3177 88.4975 72.3716C88.3756 72.4256 88.2677 72.5065 88.1818 72.6084C87.9775 72.9051 87.8839 73.2641 87.9173 73.6227C87.8818 74.0134 87.9758 74.4048 88.1849 74.7367C88.2721 74.8402 88.3821 74.9222 88.5062 74.9762C88.6304 75.0302 88.7654 75.0547 88.9006 75.0478C89.1006 75.0565 89.2964 74.9886 89.4482 74.858C89.6204 74.6788 89.7297 74.4483 89.7594 74.2015L90.9231 74.4006C90.8343 74.8765 90.5796 75.3054 90.2043 75.611C89.8055 75.899 89.3202 76.0417 88.829 76.0155C88.5404 76.0276 88.2526 75.9784 87.9844 75.8711C87.7163 75.7638 87.4739 75.601 87.2732 75.3932C86.8947 74.903 86.6895 74.3012 86.6895 73.6819C86.6895 73.0625 86.8947 72.4607 87.2732 71.9705C87.4777 71.7617 87.7238 71.5984 87.9956 71.4911C88.2675 71.3839 88.5588 71.3352 88.8508 71.3482C89.3087 71.3244 89.7622 71.4476 90.1452 71.6998C90.4888 71.9639 90.7323 72.3369 90.836 72.7577L90.8515 72.7826ZM92.6282 70.8721V69.7862H93.8075V70.8721H92.6282ZM92.6282 75.9004V71.4602H93.8075V75.8911L92.6282 75.9004ZM96.7697 72.8262L95.7024 72.6364C95.7909 72.2529 96.0111 71.9126 96.3248 71.6749C96.7203 71.4421 97.1767 71.3337 97.6347 71.3637C98.0356 71.3419 98.4365 71.4055 98.8109 71.5504C99.037 71.6466 99.2266 71.8123 99.3523 72.0234C99.4836 72.3554 99.5378 72.7129 99.511 73.0689V74.4348C99.5037 74.7232 99.5225 75.0117 99.567 75.2968C99.6095 75.5033 99.6796 75.7032 99.7755 75.8911H98.6055C98.5775 75.8133 98.5371 75.7013 98.4935 75.5488C98.4822 75.5022 98.4676 75.4565 98.45 75.4119C98.2654 75.599 98.0468 75.7489 97.8059 75.8537C97.5744 75.9512 97.3257 76.0009 97.0746 76C96.6794 76.0215 96.2912 75.8887 95.9918 75.6297C95.8632 75.5113 95.7614 75.3667 95.6932 75.2057C95.6251 75.0447 95.5922 74.871 95.5967 74.6962C95.5923 74.4606 95.6549 74.2287 95.7771 74.0272C95.8976 73.831 96.0728 73.6741 96.2812 73.5761C96.5807 73.4489 96.8939 73.357 97.2147 73.3022C97.6044 73.2427 97.9878 73.1468 98.3597 73.016V72.8977C98.3683 72.809 98.3578 72.7195 98.3288 72.6352C98.2998 72.5509 98.2531 72.4739 98.1917 72.4092C98.0004 72.2933 97.7764 72.243 97.5538 72.2661C97.382 72.2554 97.2111 72.2989 97.0653 72.3906C96.9251 72.5027 96.8238 72.6562 96.7759 72.8293L96.7697 72.8262ZM98.3535 73.7596C98.2041 73.8094 97.9646 73.8685 97.6347 73.9401C97.4119 73.974 97.1957 74.0422 96.9937 74.1424C96.9234 74.1862 96.8654 74.2471 96.8251 74.3195C96.7848 74.3919 96.7636 74.4734 96.7635 74.5562C96.7624 74.6362 96.7783 74.7155 96.8099 74.7889C96.8415 74.8623 96.8883 74.9283 96.9471 74.9825C97.0098 75.0416 97.0836 75.0877 97.1643 75.1181C97.2449 75.1485 97.3308 75.1627 97.4169 75.1598C97.641 75.1596 97.8591 75.0877 98.0392 74.9545C98.1723 74.8586 98.2706 74.7221 98.3193 74.5655C98.3586 74.3774 98.3743 74.185 98.3659 73.993L98.3535 73.7596ZM103.954 75.8786V69.7768H108.186V70.8099H105.202V72.263H107.782V73.296H105.202V75.8911L103.954 75.8786ZM110.955 72.8137L109.891 72.6239C109.978 72.2398 110.199 71.8991 110.514 71.6624C110.909 71.4291 111.365 71.3206 111.823 71.3513C112.224 71.33 112.625 71.3936 113 71.538C113.226 71.6342 113.415 71.7998 113.541 72.0109C113.672 72.343 113.727 72.7004 113.7 73.0564L113.681 74.4224C113.674 74.7108 113.693 74.9993 113.737 75.2843C113.782 75.4906 113.853 75.6903 113.949 75.8786H112.779C112.751 75.8008 112.71 75.6888 112.667 75.5364C112.655 75.4898 112.641 75.444 112.623 75.3994C112.439 75.5865 112.22 75.7365 111.979 75.8413C111.748 75.9387 111.499 75.9885 111.248 75.9875C110.853 76.0091 110.464 75.8763 110.165 75.6173C110.036 75.4988 109.935 75.3543 109.866 75.1933C109.798 75.0323 109.765 74.8586 109.77 74.6838C109.765 74.4482 109.828 74.2162 109.95 74.0148C110.071 73.8177 110.248 73.6607 110.457 73.5636C110.757 73.4357 111.07 73.3438 111.391 73.2898C111.781 73.2302 112.164 73.1344 112.536 73.0035V72.8853C112.545 72.7966 112.534 72.7071 112.505 72.6228C112.476 72.5385 112.429 72.4614 112.368 72.3968C112.177 72.2809 111.953 72.2306 111.73 72.2536C111.557 72.2435 111.386 72.287 111.238 72.3781C111.1 72.4915 111 72.6447 110.952 72.8168L110.955 72.8137ZM112.539 73.7472C112.387 73.797 112.147 73.8561 111.82 73.9277C111.598 73.9615 111.381 74.0297 111.179 74.1299C111.109 74.1736 111.05 74.2344 111.009 74.3068C110.969 74.3792 110.947 74.4607 110.946 74.5438C110.946 74.6239 110.962 74.7033 110.994 74.7767C111.026 74.8502 111.073 74.916 111.133 74.97C111.195 75.0291 111.269 75.0752 111.35 75.1057C111.431 75.1361 111.516 75.1503 111.603 75.1474C111.827 75.1472 112.045 75.0752 112.225 74.942C112.358 74.8462 112.456 74.7097 112.505 74.5531C112.544 74.3649 112.56 74.1726 112.552 73.9806L112.539 73.7472ZM115.651 71.4353H116.734V72.0389C116.896 71.8237 117.105 71.6486 117.346 71.5272C117.586 71.4058 117.852 71.3414 118.121 71.3388C118.38 71.3322 118.637 71.3933 118.865 71.5162C119.083 71.6406 119.262 71.8239 119.381 72.0452C119.551 71.8285 119.763 71.6485 120.004 71.5162C120.227 71.3983 120.476 71.3374 120.729 71.3388C121.018 71.3308 121.305 71.3995 121.56 71.538C121.787 71.6721 121.965 71.8762 122.067 72.1198C122.165 72.4153 122.207 72.7269 122.188 73.0378V75.8662H121.012V73.3365C121.038 73.0477 120.996 72.7569 120.891 72.487C120.835 72.4052 120.76 72.3392 120.672 72.2956C120.583 72.2519 120.485 72.2321 120.386 72.2381C120.218 72.2392 120.055 72.2913 119.917 72.3874C119.768 72.496 119.659 72.65 119.605 72.8262C119.53 73.1249 119.497 73.433 119.509 73.741V75.8662H118.333V73.4391C118.346 73.1607 118.325 72.8817 118.271 72.6084C118.236 72.4968 118.168 72.3988 118.075 72.3283C117.967 72.2628 117.842 72.2313 117.717 72.2381C117.542 72.2347 117.371 72.2846 117.225 72.3812C117.077 72.4836 116.968 72.6325 116.914 72.8044C116.835 73.1016 116.803 73.409 116.818 73.7161V75.8662H115.641L115.651 71.4353ZM124.264 70.8379V69.752H125.44V70.8379H124.264ZM124.264 75.8662V71.4602H125.44V75.8911L124.264 75.8662ZM127.531 75.8662V69.7768H128.71V75.8911L127.531 75.8662ZM130.801 70.8379V69.752H131.98V70.8379H130.801ZM130.801 75.8662V71.4602H131.98V75.8911L130.801 75.8662ZM134.949 72.8013L133.881 72.6115C133.97 72.2279 134.19 71.8875 134.504 71.65C134.899 71.4172 135.356 71.3088 135.814 71.3388C136.215 71.317 136.615 71.3806 136.99 71.5255C137.216 71.6217 137.406 71.7874 137.531 71.9985C137.662 72.3305 137.717 72.688 137.69 73.044L137.674 74.41C137.667 74.6984 137.686 74.9868 137.73 75.2719C137.773 75.4784 137.843 75.6783 137.939 75.8662H136.769C136.741 75.7884 136.7 75.6764 136.657 75.5239C136.646 75.4775 136.633 75.4318 136.616 75.387C136.43 75.5735 136.211 75.7234 135.969 75.8288C135.738 75.9268 135.489 75.9765 135.238 75.9751C134.843 75.9966 134.455 75.8638 134.155 75.6048C133.945 75.3994 133.81 75.1299 133.772 74.839C133.733 74.5481 133.792 74.2525 133.94 73.9992C134.061 73.8021 134.238 73.6452 134.448 73.5481C134.747 73.4206 135.06 73.3287 135.381 73.2742C135.771 73.2147 136.154 73.1188 136.526 72.988V72.8697C136.535 72.781 136.524 72.6915 136.495 72.6072C136.466 72.5229 136.42 72.4459 136.358 72.3812C136.172 72.2675 135.953 72.2173 135.736 72.2381C135.559 72.2174 135.381 72.2637 135.237 72.368C135.093 72.4724 134.993 72.627 134.958 72.8013H134.949ZM136.529 73.7348C136.38 73.7845 136.14 73.8437 135.811 73.9152C135.588 73.9491 135.371 74.0173 135.17 74.1175C135.1 74.1617 135.042 74.2228 135.002 74.295C134.961 74.3673 134.94 74.4486 134.939 74.5313C134.939 74.6112 134.955 74.6902 134.987 74.7635C135.018 74.8369 135.065 74.9029 135.123 74.9576C135.186 75.0167 135.259 75.0628 135.34 75.0932C135.421 75.1237 135.507 75.1378 135.593 75.1349C135.817 75.1352 136.035 75.0632 136.215 74.9296C136.349 74.8346 136.447 74.6978 136.495 74.5406C136.534 74.3525 136.55 74.1602 136.542 73.9681L136.529 73.7348ZM140.861 75.8537H139.681V71.4602H140.773V72.0825C140.895 71.8576 141.063 71.6605 141.265 71.5038C141.42 71.4094 141.598 71.3608 141.779 71.3637C142.053 71.3659 142.322 71.4422 142.556 71.5847L142.199 72.6084C142.036 72.4924 141.844 72.4254 141.645 72.4155C141.493 72.4116 141.344 72.4587 141.222 72.5492C141.085 72.6828 140.992 72.854 140.954 73.0409C140.866 73.5304 140.833 74.0282 140.854 74.5251L140.861 75.8537Z" fill="white"/>
<path id="Vector_2" fill-rule="evenodd" clip-rule="evenodd" d="M127.512 39.9867L119.982 29.6906L124.774 25.8664L129.584 22.2352L142.454 39.9867H127.512ZM98.5463 0L110.52 16.3762L115.187 13.0001L120.306 9.46227L113.491 0H98.5463ZM95.9202 0V28.1815L82.4564 39.9867V34.1525H63.7435L75.0447 25.0045H82.4564V15.869L52.5854 39.9961H34.5383L83.8069 0H95.9202ZM3.27954 39.9867L10.6913 15.9499L13.1805 7.88159L15.592 0H49.7228C59.3157 0.721883 63.1834 7.46776 60.439 15.7445L47.9927 25.9536L44.9154 25.9754L21.5227 25.9536L17.3189 39.9867H3.27954ZM24.6249 15.9063L44.6914 15.8597C48.5777 15.9499 49.0476 10.1375 45.7244 10.1157H26.4016L24.6249 15.9063Z" fill="white"/>
<path id="Vector_3" fill-rule="evenodd" clip-rule="evenodd" d="M86.6633 39.9868L98.9976 29.1523L104.704 24.4663L110.305 20.0074L116.217 15.6512L122.509 11.1674L129.587 6.48452L137.677 1.48113L139.149 0.622334L140.291 0.217834H141.106L141.558 0.420084L141.891 0.756129L141.999 1.27577L141.782 2.44882L141.67 2.98713L141.782 3.50675L142.345 3.70901L143.151 3.61877L145.217 2.76309L146.564 2.01942L148.16 0.961494L148.733 0.622334H149.066L149.654 0.849482L149.965 1.05173H150.899L151.129 1.59314L151.487 1.9043L152.05 2.01632L153.294 1.81406L153.858 1.67716L154.331 2.01632V2.44571L153.749 3.06802L139.028 12.3312L132.774 16.4913L127.061 20.5364L121.351 24.8023L115.75 29.3545L109.932 34.3766L103.662 39.9774L86.6633 39.9868Z" fill="#FAF200"/>
<path id="Vector_4" fill-rule="evenodd" clip-rule="evenodd" d="M5.47636 53.3914H8.1772C8.76044 53.4142 9.33549 53.2483 9.81699 52.9184C10.0515 52.7448 10.2482 52.5254 10.3953 52.2735C10.5424 52.0215 10.6368 51.7424 10.6727 51.4528C10.7816 50.7527 10.6727 50.2362 10.3366 49.8971C9.92977 49.5498 9.40529 49.3716 8.87108 49.3992H6.17335L5.47636 53.3914ZM2.7164 46.1819H10.0441C10.741 46.1758 11.4354 46.2669 12.1071 46.4526C12.7069 46.6169 13.2614 46.916 13.7282 47.3269C14.168 47.7566 14.4895 48.2925 14.6617 48.8827C14.846 49.6282 14.8598 50.4057 14.7021 51.1573C14.391 53.0055 13.6722 54.3777 12.5489 55.2023C11.4257 56.0269 9.9819 56.4874 8.21142 56.4874H4.94117L4.0077 61.6495H0L2.7164 46.1819ZM21.5009 52.8966H24.8676C26.1123 52.8966 26.8248 52.2899 27.0457 51.0919C27.1029 50.869 27.0999 50.6349 27.0371 50.4135C26.9742 50.1921 26.8537 49.9913 26.6879 49.8317C26.2876 49.5303 25.7945 49.3784 25.2939 49.4023H22.1295L21.5009 52.8966ZM18.6694 46.1819H26.5043C27.173 46.179 27.8392 46.2626 28.4864 46.4308C29.0684 46.5741 29.6121 46.8427 30.0795 47.218C30.5248 47.5661 30.8607 48.0349 31.0472 48.5684C31.2515 49.2021 31.2827 49.8789 31.1374 50.5287C30.9852 51.3947 30.6325 52.213 30.1075 52.9184C29.5721 53.6066 28.8525 54.1289 28.0321 54.4244V54.4711C28.3852 54.5422 28.7098 54.7153 28.9656 54.9689C29.2005 55.2297 29.3775 55.5372 29.4852 55.8713C29.579 56.2321 29.6394 56.6008 29.6657 56.9728C29.6914 57.371 29.683 57.7708 29.6408 58.1676L29.619 58.4383C29.5754 58.8864 29.5288 59.2255 29.5039 59.4278C29.479 59.63 29.4852 59.9008 29.4634 60.2181C29.4416 60.5355 29.4634 60.8404 29.4852 61.0925C29.4824 61.2994 29.5542 61.5004 29.6875 61.6588H25.7015C25.5982 61.3784 25.5538 61.0797 25.5708 60.7813C25.5895 60.3955 25.6144 59.9474 25.658 59.4496L25.6829 59.2038C25.7392 58.785 25.7683 58.363 25.77 57.9405C25.7631 57.6235 25.7107 57.3091 25.6144 57.007C25.5047 56.7213 25.309 56.4766 25.0543 56.3069C24.7372 56.112 24.3681 56.0186 23.9964 56.0393H20.9657L19.97 61.6712H15.953L18.6694 46.1819ZM35.1856 46.1819H39.2057L36.4924 61.6588H32.491L35.1856 46.1819ZM43.1139 46.1819H49.0258L49.8597 56.4967H49.9064L54.3746 46.1819H60.2866L57.564 61.6588H53.7928L55.8371 49.9002H55.7904L50.5007 61.6588H47.4483L46.2597 49.9002H46.2379L44.1842 61.6588H40.3975L43.1139 46.1819ZM69.1514 46.1819H73.24L76.2738 61.6588H72.0981L71.622 58.8864H66.2515L64.789 61.6588H60.6755L69.1514 46.1819ZM67.689 55.8899H71.1957L70.4303 50.4852H70.4085L67.689 55.8899ZM85.064 61.6588H80.4371L78.3275 46.1819H82.5032L83.4958 57.6947H83.5393L88.5738 46.1819H92.7527L85.064 61.6588ZM96.7697 46.1819H109.042L108.479 49.4023H100.236L99.7381 52.1281H107.29L106.752 55.2396H99.1967L98.6864 58.1863H107.153L106.549 61.6557H94.0502L96.7697 46.1819ZM115.896 52.8966H119.266C120.511 52.8966 121.217 52.2899 121.423 51.0919C121.483 50.8707 121.484 50.6372 121.424 50.4157C121.365 50.1941 121.247 49.9925 121.083 49.8317C120.685 49.5305 120.194 49.3785 119.696 49.4023H116.5L115.896 52.8966ZM113.059 46.1819H120.903C121.571 46.1804 122.236 46.264 122.882 46.4308C123.464 46.5754 124.007 46.8439 124.475 47.218C124.922 47.5651 125.259 48.0341 125.446 48.5684C125.649 49.2024 125.679 49.8792 125.533 50.5287C125.382 51.3957 125.028 52.2146 124.5 52.9184C123.966 53.6042 123.25 54.1261 122.434 54.4244V54.4711C122.787 54.5435 123.111 54.7164 123.367 54.9689C123.603 55.2249 123.773 55.5346 123.862 55.8713C123.973 56.229 124.041 56.5988 124.064 56.9728C124.09 57.371 124.082 57.7708 124.039 58.1676L124.018 58.4383C123.952 58.8864 123.927 59.2255 123.906 59.4278C123.877 59.6903 123.862 59.9541 123.862 60.2181C123.862 60.5542 123.862 60.8404 123.884 61.0925C123.883 61.2991 123.954 61.4996 124.086 61.6588H120.106C119.979 61.3852 119.932 61.0806 119.973 60.7813C119.994 60.3955 120.019 59.9474 120.066 59.4496L120.085 59.2038C120.131 58.7059 120.175 58.2703 120.175 57.9405C120.172 57.6209 120.111 57.3046 119.994 57.007C119.904 56.718 119.714 56.4701 119.459 56.3069C119.141 56.1143 118.773 56.0211 118.401 56.0393H115.368L114.378 61.6712H110.345L113.059 46.1819ZM135.49 46.1819H139.557L142.591 61.6588H138.412L137.93 58.8864H132.553L131.096 61.6588H126.995L135.49 46.1819ZM134.028 55.8899H137.513L136.769 50.4852H136.725L134.028 55.8899Z" fill="white"/>
<path id="Vector_5" d="M142.609 65.6603H0V66.4071H142.609V65.6603Z" fill="#FAF200"/>
</g>
<defs>
<clipPath id="clip0_1_28">
<rect width="154.34" height="76" fill="white"/>
</clipPath>
</defs>
</svg>
